<svg width="24" height="24" viewBox="0 0 24 24" fill="none" xmlns="http://www.w3.org/2000/svg">
<g id="donut_large_24px">
<path id="icon/action/donut_large_24px" fill-rule="evenodd" clip-rule="evenodd" d="M5.025 12C5.025 15.52 7.635 18.43 11.025 18.92V21.95C5.975 21.45 2.025 17.19 2.025 12C2.025 6.81005 5.975 2.55005 11.025 2.05005V5.08005C7.635 5.57005 5.025 8.48005 5.025 12ZM13.025 5.08005C16.085 5.52005 18.505 7.94005 18.945 11H21.975C21.505 6.28005 17.745 2.52005 13.025 2.05005V5.08005ZM18.945 13C18.505 16.06 16.085 18.48 13.025 18.92V21.95C17.745 21.48 21.505 17.72 21.975 13H18.945Z" fill="black" fill-opacity="0.54"/>
</g>
</svg>
