<svg width="124" height="124" viewBox="0 0 124 124" fill="none" xmlns="http://www.w3.org/2000/svg">
<circle cx="62" cy="62" r="62" fill="#1D8BDB"/>
<path d="M17.375 41.3125H30.9375C37.2292 41.3125 41.7708 42.2292 44.5625 44.0625C47.375 45.8958 48.7812 48.7917 48.7812 52.75C48.7812 55.4167 48.0938 57.6354 46.7188 59.4062C45.3438 61.1771 43.3646 62.2917 40.7812 62.75V63.0625C43.9896 63.6667 46.3438 64.8646 47.8438 66.6562C49.3646 68.4271 50.125 70.8333 50.125 73.875C50.125 77.9792 48.6875 81.1979 45.8125 83.5312C42.9583 85.8438 38.9792 87 33.875 87H17.375V41.3125ZM24.8438 60.1875H32.0312C35.1562 60.1875 37.4375 59.6979 38.875 58.7188C40.3125 57.7188 41.0312 56.0312 41.0312 53.6562C41.0312 51.5104 40.25 49.9583 38.6875 49C37.1458 48.0417 34.6875 47.5625 31.3125 47.5625H24.8438V60.1875ZM24.8438 66.25V80.7188H32.7812C35.9062 80.7188 38.2604 80.125 39.8438 78.9375C41.4479 77.7292 42.25 75.8333 42.25 73.25C42.25 70.875 41.4375 69.1146 39.8125 67.9688C38.1875 66.8229 35.7188 66.25 32.4062 66.25H24.8438ZM79.375 87L66.125 48.8438H65.875C66.2292 54.5104 66.4062 59.8229 66.4062 64.7812V87H59.625V41.3125H70.1562L82.8438 77.6562H83.0312L96.0938 41.3125H106.656V87H99.4688V64.4062C99.4688 62.1354 99.5208 59.1771 99.625 55.5312C99.75 51.8854 99.8542 49.6771 99.9375 48.9062H99.6875L85.9688 87H79.375Z" fill="#F6F6F6"/>
</svg>
