<svg width="56" height="56" viewBox="0 0 56 56" fill="none" xmlns="http://www.w3.org/2000/svg">
<circle cx="28" cy="28" r="28" fill="#E5E5E5"/>
<path d="M18.75 38.875C18.75 40.6625 20.2125 42.125 22 42.125H35C36.7875 42.125 38.25 40.6625 38.25 38.875V19.375H18.75V38.875ZM22.7475 27.305L25.0387 25.0138L28.5 28.4588L31.945 25.0138L34.2362 27.305L30.7912 30.75L34.2362 34.195L31.945 36.4863L28.5 33.0412L25.055 36.4863L22.7638 34.195L26.2088 30.75L22.7475 27.305ZM34.1875 14.5L32.5625 12.875H24.4375L22.8125 14.5H17.125V17.75H39.875V14.5H34.1875Z" fill="#C70000"/>
</svg>
